<svg width="1197" height="1766" viewBox="0 0 1197 1766" fill="none" xmlns="http://www.w3.org/2000/svg">
<g clip-path="url(#clip0_72_47)">
<rect width="1197" height="1766" fill="white"/>
<path d="M1351 -312L1267.34 -178.824C1182.62 -109.348 1093.76 138.824 944.418 124.526C887.231 116.716 815.407 87.042 815.407 55.3545C815.407 23.667 858.02 13.6197 890.077 33.3278C922.135 53.0359 863.884 144.621 815.407 115.252C766.93 85.8827 751.65 79 702 79C652.35 79 580 115.252 540 159C402.822 309.033 417.674 543.527 196 562C-44.0001 582 106 786 130 978C154 1170 196 1292 82.0001 1544C-31.9998 1796 270.667 1834.67 238 1890" stroke="#EF8026" stroke-width="33"/>
</g>
<defs>
<clipPath id="clip0_72_47">
<rect width="1197" height="1766" fill="white"/>
</clipPath>
</defs>
</svg>
