<?xml version="1.0" encoding="utf-8"?>
<!-- Generator: Adobe Illustrator 27.9.0, SVG Export Plug-In . SVG Version: 6.00 Build 0)  -->
<svg version="1.1" id="Layer_1" xmlns="http://www.w3.org/2000/svg" xmlns:xlink="http://www.w3.org/1999/xlink" x="0px" y="0px"
	 viewBox="0 0 1792 1006.82" style="enable-background:new 0 0 1792 1006.82;" xml:space="preserve">
<path 
	d="M278.55-45.78c17.27,0.8,43.02,3.98,71.65,15.8c14.79,6.1,23.13,9.53,31.88,17.16
	c37.79,32.97,28.19,96.32,26.84,104.48c-4,24.14-13.32,41.32-32.51,71.56c-67.35,106.11-94.82,117.22-99.35,156.2
	c-4.97,42.77,21.18,89.11,52.31,114.42c87.17,70.9,197.98-35.54,340,22.88c9.66,3.98,120.45,50.96,145.48,147.12
	C844.04,716,725.37,777.6,742.92,891.55c15.32,99.46,117.22,127.11,221.22,224.19c80.34,74.99,178.34,206.74,224.49,451.16"
	stroke-width="70"
	stroke="#FFFFFF"
	fill="none" />
</svg>