<?xml version="1.0" encoding="UTF-8"?>
<svg id="Layer_1" data-name="Layer 1" xmlns="http://www.w3.org/2000/svg" viewBox="0 0 1674 1117">
  <defs>
    <style>
      .cls-1 {
        fill: none;
        stroke: #e78431;
        stroke-miterlimit: 10;
        stroke-width: 33px;
      }
    </style>
  </defs>
  <path class="cls-1" d="m1676.87-46.87c-18.75,37.14-63.25,110.86-149.75,151.6-27.69,13.04-90.12,42.83-147.22,17.23-16.21-7.27-56.4-21.43-52.19-55.5,3.37-27.27,22.96-59.23,52.19-43.59,18.24,9.77,34.5,23.68,29.12,43.59-11.32,41.88-81.54,68.79-92.93,70.21-58.28,7.25-89.23-12.53-139.3-17.98,0,0-28.38-2.19-67.08-1.13-61.61,1.69-127.73,44.02-202.23,40.34-58.87-2.9-59.76-26.74-150.37-36.96-38.75-4.37-67.86-3.31-93.81-2.26-86.9,3.52-120.62,7.65-241.66,32-15.07,3.03-29.77,3.7-49.79,3.78-77.29.3-104.72-25.25-155.26-29.16-51.14-3.96-125.97,14.25-154.74,63.21-36.49,62.1,3.06,161.8,58.15,216.48,60.44,60,117.07,43.69,161.98,108.26,4.17,6,41.4,61.08,32.81,124.49-17.58,129.79-211.72,122.02-274.8,291.25-31.63,84.86-26.96,152.75-9.28,204.15,8.61,25.03,38.02,77.92,89.28,121.85,0,0,0,0,0,0"/>
</svg>