<?xml version="1.0" encoding="utf-8"?>
<!-- Generator: Adobe Illustrator 27.9.0, SVG Export Plug-In . SVG Version: 6.00 Build 0)  -->
<svg version="1.1" id="Layer_1" xmlns="http://www.w3.org/2000/svg" xmlns:xlink="http://www.w3.org/1999/xlink" x="0px" y="0px"
	 viewBox="0 0 398.78 208.22" style="enable-background:new 0 0 398.78 208.22;" xml:space="preserve">
<style type="text/css">
	.st0{fill:none;stroke:#262626;stroke-width:49;stroke-miterlimit:10;}
	.st1{fill:none;stroke:#262626;stroke-width:47;stroke-miterlimit:10;}
	.st2{fill:#DF3829;}
	.st3{fill:none;stroke:#E3E3E3;stroke-width:0.5;stroke-miterlimit:10;}
	.st4{display:none;opacity:0.46;}
	.st5{display:inline;}
	.st6{fill:none;stroke:#FF9C97;stroke-width:10;stroke-miterlimit:10;}
	.st7{fill:#1D1D1B;}
	.st8{fill:#EA8026;}
	.st9{fill:#A70F0A;}
	.st10{fill:#F1C143;}
	.st11{fill:#800605;}
</style>
<path class="st7" d="M82.16,97.63c0.27-0.27,0.65-0.41,1.13-0.41h16.17c0.48,0,0.86,0.14,1.13,0.41c0.27,0.28,0.41,0.65,0.41,1.13
	v69.01c0,0.48-0.14,0.86-0.41,1.13c-0.28,0.28-0.65,0.41-1.13,0.41h-17c-0.89,0-1.48-0.38-1.75-1.13L66.4,134.61
	c-0.07-0.27-0.21-0.41-0.41-0.41s-0.31,0.17-0.31,0.51l0.21,33.06c0,0.48-0.14,0.86-0.41,1.13c-0.28,0.28-0.65,0.41-1.13,0.41H48.17
	c-0.48,0-0.86-0.14-1.13-0.41c-0.28-0.27-0.41-0.65-0.41-1.13V98.77c0-0.48,0.14-0.86,0.41-1.13c0.27-0.27,0.65-0.41,1.13-0.41
	h16.89c0.89,0,1.48,0.38,1.75,1.13l14.32,33.58c0.07,0.27,0.21,0.4,0.41,0.36c0.21-0.03,0.31-0.22,0.31-0.57l-0.1-32.96
	C81.75,98.29,81.89,97.91,82.16,97.63z"/>
<path class="st7" d="M249.83,168.09l-8.75-25.96c-0.07-0.34-0.31-0.51-0.72-0.51h-1.85c-0.41,0-0.62,0.21-0.62,0.62v25.54
	c0,0.48-0.14,0.86-0.41,1.13c-0.28,0.28-0.65,0.41-1.13,0.41h-16.27c-0.48,0-0.86-0.14-1.13-0.41c-0.28-0.27-0.41-0.65-0.41-1.13
	V98.77c0-0.48,0.14-0.86,0.41-1.13c0.27-0.27,0.65-0.41,1.13-0.41h27.19c4.39,0,8.27,0.96,11.64,2.88c3.36,1.92,5.97,4.62,7.83,8.08
	c1.85,3.47,2.78,7.47,2.78,12c0,4.19-0.88,7.88-2.63,11.07s-4.21,5.68-7.36,7.47c-0.28,0.21-0.38,0.48-0.31,0.82l10.61,28.02
	c0.07,0.21,0.1,0.45,0.1,0.72c0,0.69-0.45,1.03-1.34,1.03h-17C250.69,169.32,250.1,168.91,249.83,168.09z M237.88,114.42v11.85
	c0,0.41,0.21,0.62,0.62,0.62h5.46c1.85,0,3.36-0.58,4.53-1.75c1.17-1.17,1.75-2.75,1.75-4.74c0-2.06-0.57-3.67-1.7-4.84
	c-1.13-1.17-2.66-1.75-4.58-1.75h-5.46C238.09,113.81,237.88,114.01,237.88,114.42z"/>
<path class="st7" d="M329.33,97.63c0.27,0.28,0.41,0.65,0.41,1.13v13.49c0,0.48-0.14,0.86-0.41,1.13c-0.28,0.28-0.65,0.41-1.13,0.41
	h-14.63c-0.41,0-0.62,0.21-0.62,0.62v53.35c0,0.48-0.14,0.86-0.41,1.13c-0.28,0.28-0.65,0.41-1.13,0.41h-16.27
	c-0.48,0-0.86-0.14-1.13-0.41c-0.28-0.27-0.41-0.65-0.41-1.13v-53.35c0-0.41-0.21-0.62-0.62-0.62h-14.32
	c-0.48,0-0.86-0.14-1.13-0.41c-0.28-0.27-0.41-0.65-0.41-1.13V98.77c0-0.48,0.14-0.86,0.41-1.13c0.27-0.27,0.65-0.41,1.13-0.41
	h49.54C328.68,97.22,329.06,97.36,329.33,97.63z"/>
<path class="st7" d="M384.53,113.39c-0.28,0.28-0.65,0.41-1.13,0.41h-25.13c-0.41,0-0.62,0.21-0.62,0.62v9.68
	c0,0.41,0.21,0.62,0.62,0.62h14.52c0.48,0,0.86,0.14,1.13,0.41c0.27,0.27,0.41,0.65,0.41,1.13v13.39c0,0.48-0.14,0.86-0.41,1.13
	c-0.28,0.28-0.65,0.41-1.13,0.41h-14.52c-0.41,0-0.62,0.21-0.62,0.62v10.3c0,0.41,0.21,0.62,0.62,0.62h25.13
	c0.48,0,0.86,0.14,1.13,0.41c0.27,0.28,0.41,0.65,0.41,1.13v13.49c0,0.48-0.14,0.86-0.41,1.13c-0.28,0.28-0.65,0.41-1.13,0.41
	h-43.57c-0.48,0-0.86-0.14-1.13-0.41c-0.28-0.27-0.41-0.65-0.41-1.13V98.77c0-0.48,0.14-0.86,0.41-1.13
	c0.27-0.27,0.65-0.41,1.13-0.41h43.57c0.48,0,0.86,0.14,1.13,0.41c0.27,0.28,0.41,0.65,0.41,1.13v13.49
	C384.94,112.74,384.8,113.12,384.53,113.39z"/>
<path class="st10" d="M43.77,38.46c-0.25,0.25-0.56,0.38-0.92,0.38h-7.65c-0.36,0-0.54,0.18-0.54,0.54V60.7
	c0,1.87,0.36,3.21,1.08,4.04c0.72,0.83,1.83,1.2,3.34,1.13h2.37c0.36,0,0.66,0.13,0.92,0.38c0.25,0.25,0.38,0.56,0.38,0.92v12.71
	c0,0.86-0.43,1.29-1.29,1.29c-2.87,0.14-4.95,0.22-6.25,0.22c-5.96,0-10.39-0.93-13.3-2.8c-2.91-1.87-4.36-5.42-4.36-10.66V39.38
	c0-0.36-0.18-0.54-0.54-0.54h-4.85c-0.36,0-0.66-0.12-0.92-0.38c-0.25-0.25-0.38-0.55-0.38-0.92V26.78c0-0.36,0.12-0.66,0.38-0.92
	c0.25-0.25,0.56-0.38,0.92-0.38h4.85c0.36,0,0.54-0.18,0.54-0.54V12.46c0-0.36,0.12-0.66,0.38-0.92c0.25-0.25,0.56-0.38,0.92-0.38
	h14.54c0.36,0,0.66,0.13,0.92,0.38c0.25,0.25,0.38,0.56,0.38,0.92v12.49c0,0.36,0.18,0.54,0.54,0.54h7.65
	c0.36,0,0.66,0.13,0.92,0.38c0.25,0.25,0.38,0.56,0.38,0.92v10.77C44.15,37.91,44.02,38.21,43.77,38.46z"/>
<path class="st10" d="M87.92,27c3.59,1.58,6.41,3.75,8.45,6.51c2.05,2.76,3.07,5.91,3.07,9.42v36.93c0,0.36-0.13,0.66-0.38,0.92
	c-0.25,0.25-0.56,0.38-0.92,0.38H82.86c-0.36,0-0.66-0.12-0.92-0.38c-0.25-0.25-0.38-0.55-0.38-0.92v-3.12
	c0-0.21-0.07-0.36-0.22-0.43c-0.14-0.07-0.29,0-0.43,0.22c-2.51,3.59-6.68,5.42-12.49,5.49c-4.95,0-9.03-1.25-12.22-3.77
	c-3.19-2.51-4.79-6.71-4.79-12.6c0-6.25,1.88-10.7,5.65-13.35c3.77-2.66,9.28-3.98,16.53-3.98h7.43c0.36,0,0.54-0.18,0.54-0.54
	v-2.37c0-1.65-0.5-2.98-1.51-3.98c-1.01-1-2.41-1.51-4.2-1.51c-1.36,0-2.5,0.31-3.39,0.92c-0.9,0.61-1.53,1.42-1.88,2.42
	c-0.22,0.79-0.68,1.15-1.4,1.08l-15.61-0.97c-0.86-0.14-1.29-0.54-1.29-1.18c0.22-3.45,1.35-6.5,3.39-9.15
	c2.05-2.66,4.81-4.72,8.29-6.19c3.48-1.47,7.38-2.21,11.68-2.21C80.24,24.63,84.33,25.42,87.92,27z M79.47,67.32
	c1.4-1.11,2.1-2.57,2.1-4.36v-3.23c0-0.36-0.18-0.54-0.54-0.54h-4.85c-2.08,0-3.71,0.45-4.9,1.35c-1.18,0.9-1.78,2.17-1.78,3.82
	c0,1.44,0.45,2.57,1.35,3.39c0.9,0.83,2.1,1.24,3.61,1.24C76.4,68.99,78.07,68.44,79.47,67.32z"/>
<path class="st10" d="M152.16,29.74c3.01,3.41,4.52,8.17,4.52,14.27v35.86c0,0.36-0.13,0.66-0.38,0.92
	c-0.25,0.25-0.56,0.38-0.92,0.38H140.1c-0.36,0-0.66-0.12-0.92-0.38c-0.25-0.25-0.38-0.55-0.38-0.92V46.59
	c0-2.01-0.5-3.62-1.51-4.85c-1.01-1.22-2.33-1.83-3.98-1.83c-1.65,0-2.98,0.61-3.98,1.83c-1.01,1.22-1.51,2.84-1.51,4.85v33.27
	c0,0.36-0.13,0.66-0.38,0.92c-0.25,0.25-0.56,0.38-0.92,0.38h-15.29c-0.36,0-0.66-0.12-0.92-0.38c-0.25-0.25-0.38-0.55-0.38-0.92
	V26.78c0-0.36,0.12-0.66,0.38-0.92c0.25-0.25,0.56-0.38,0.92-0.38h15.29c0.36,0,0.66,0.13,0.92,0.38c0.25,0.25,0.38,0.56,0.38,0.92
	v3.01c0,0.22,0.09,0.34,0.27,0.38c0.18,0.04,0.34-0.09,0.48-0.38c2.58-3.45,6.25-5.17,10.98-5.17
	C144.94,24.63,149.14,26.33,152.16,29.74z"/>
<path class="st10" d="M196.74,25.87c0.25-0.25,0.56-0.38,0.92-0.38h15.29c0.36,0,0.66,0.13,0.92,0.38c0.25,0.25,0.38,0.56,0.38,0.92
	v49.64c0,8.97-2.53,15.63-7.59,19.97c-5.06,4.34-10.28-16.81-10.28-20.84l-0.75,0.86c-2.44,2.87-5.92,4.31-10.44,4.31
	c-4.74,0-8.72-1.35-11.95-4.04c-3.23-2.69-5.31-6.8-6.25-12.33c-0.58-2.01-0.86-5.78-0.86-11.31c0-2.01,0.09-4.15,0.27-6.41
	c0.18-2.26,0.41-3.97,0.7-5.11c0.07-0.14,0.11-0.36,0.11-0.65c0.86-5.1,2.82-9.08,5.87-11.95c3.05-2.87,6.98-4.31,11.79-4.31
	c4.67,0,8.29,1.62,10.88,4.84c0.14,0.22,0.29,0.29,0.43,0.22c0.14-0.07,0.22-0.22,0.22-0.43v-2.48
	C196.37,26.42,196.49,26.12,196.74,25.87z M196.37,53.06c0-3.52-0.18-6.25-0.54-8.18c-0.29-1.51-0.92-2.71-1.88-3.61
	c-0.97-0.9-2.21-1.35-3.72-1.35c-1.36,0-2.49,0.45-3.39,1.35c-0.9,0.9-1.53,2.06-1.88,3.5c-0.58,2.66-0.86,5.46-0.86,8.4
	c0,3.01,0.22,5.71,0.65,8.08c0.36,1.51,1.02,2.69,1.99,3.55c0.97,0.86,2.17,1.29,3.61,1.29c1.51,0,2.75-0.43,3.71-1.29
	c0.97-0.86,1.6-2.05,1.88-3.55C196.22,59.16,196.37,56.43,196.37,53.06z"/>
<path class="st10" d="M232.07,77.01c-4.16-3.34-6.64-7.95-7.43-13.84c-0.43-2.8-0.65-6.1-0.65-9.91c0-4.23,0.25-7.64,0.75-10.23
	c0.79-5.67,3.27-10.16,7.43-13.46c4.16-3.3,9.55-4.95,16.15-4.95c6.6,0,11.97,1.65,16.1,4.95c4.13,3.3,6.59,7.75,7.38,13.35
	c0.5,2.73,0.75,6.14,0.75,10.23c0,3.45-0.18,6.71-0.54,9.8c-0.79,5.96-3.27,10.62-7.43,14c-4.16,3.38-9.58,5.06-16.26,5.06
	C241.65,82.02,236.23,80.35,232.07,77.01z M252.26,65.06c1.04-1.11,1.74-2.6,2.1-4.47c0.22-2.3,0.32-4.74,0.32-7.32
	c0-1.87-0.14-4.38-0.43-7.54c-0.29-1.79-0.95-3.21-1.99-4.25c-1.04-1.04-2.35-1.56-3.93-1.56c-1.65,0-3,0.52-4.04,1.56
	c-1.04,1.04-1.71,2.46-1.99,4.25c-0.29,2.08-0.43,4.59-0.43,7.54c0,2.58,0.11,5.03,0.32,7.32c0.36,1.87,1.06,3.36,2.1,4.47
	c1.04,1.11,2.39,1.67,4.04,1.67C249.9,66.73,251.22,66.17,252.26,65.06z"/>
<g>
	<path class="st10" d="M128.26,193.89c19.01-0.44,41.02-9.21,52.91-24.45c12.56-15.56,11.73-38.66,1.17-55.02
		c-4.13-6.54-9.9-12.02-16.7-15.18c-13.34-6.25-31.12-2.77-40.01,9.28c-10.71,13.89-9.52,38.25,7.13,46.78
		c6.07,3.21,13.29,4.56,20.07,2.94c12.53-2.97,23.42-14.1,30.88-24.27c11.39-16.97,14.79-38.38,12.83-58.49
		c-0.5-4.9,3.07-9.27,7.97-9.77c4.9-0.5,9.27,3.07,9.77,7.97c0.12,4.73-0.25,9.47-0.65,14.16c-1.38,13.1-4.35,26.01-10.03,38.02
		c-5.51,12.04-14.02,22.61-24.31,30.99c-10.35,8.91-24.53,15.26-38.5,12.32c-14.11-2.66-26.27-12.83-29.68-27.01
		c-4.35-16.53,1.73-35.55,15.76-45.56c8.32-5.81,18.79-8.15,28.79-6.86c22.53,2.64,37.45,24.81,39.12,46.08
		c1.27,12.74-2.56,25.97-10.76,35.85c-12.79,15.6-35.89,24.31-55.78,24.22C126.93,195.81,126.93,193.93,128.26,193.89L128.26,193.89
		z"/>
</g>
</svg>
