<?xml version="1.0" encoding="UTF-8"?>
<svg id="Layer_1" data-name="Layer 1" xmlns="http://www.w3.org/2000/svg" viewBox="0 0 392.46 201.6">
  <defs>
    <style>
      .cls-1 {
        fill: #222;
      }

      .cls-1, .cls-2, .cls-3 {
        stroke-width: 0px;
      }

      .cls-2 {
        fill: #fdf1e5;
      }

      .cls-3 {
        fill: #e98026;
      }
    </style>
  </defs>
  <rect class="cls-2" x="8.5" y="5.01" width="272.95" height="83.05" rx="8.97" ry="8.97"/>
  <g>
    <path class="cls-1" d="m84.68,96.15c.27-.27.65-.41,1.13-.41h16.17c.48,0,.86.14,1.13.41.27.28.41.65.41,1.13v69.01c0,.48-.14.86-.41,1.13s-.65.41-1.13.41h-17c-.89,0-1.48-.38-1.75-1.13l-14.32-33.58c-.07-.27-.21-.41-.41-.41s-.31.17-.31.51l.21,33.06c0,.48-.14.86-.41,1.13-.28.28-.65.41-1.13.41h-16.17c-.48,0-.86-.14-1.13-.41-.28-.27-.41-.65-.41-1.13v-69.01c0-.48.14-.86.41-1.13.27-.27.65-.41,1.13-.41h16.89c.89,0,1.48.38,1.75,1.13l14.32,33.58c.07.27.21.4.41.36.21-.03.31-.22.31-.57l-.1-32.96c0-.48.14-.86.41-1.13Z"/>
    <path class="cls-1" d="m252.35,166.6l-8.75-25.96c-.07-.34-.31-.51-.72-.51h-1.85c-.41,0-.62.21-.62.62v25.54c0,.48-.14.86-.41,1.13s-.65.41-1.13.41h-16.27c-.48,0-.86-.14-1.13-.41-.28-.27-.41-.65-.41-1.13v-69.01c0-.48.14-.86.41-1.13.27-.27.65-.41,1.13-.41h27.19c4.39,0,8.27.96,11.64,2.88,3.36,1.92,5.97,4.62,7.83,8.08,1.85,3.47,2.78,7.47,2.78,12,0,4.19-.88,7.88-2.63,11.07s-4.21,5.68-7.36,7.47c-.28.21-.38.48-.31.82l10.61,28.02c.07.21.1.45.1.72,0,.69-.45,1.03-1.34,1.03h-17c-.89,0-1.48-.41-1.75-1.24Zm-11.95-53.66v11.85c0,.41.21.62.62.62h5.46c1.85,0,3.36-.58,4.53-1.75,1.17-1.17,1.75-2.75,1.75-4.74s-.57-3.67-1.7-4.84c-1.13-1.17-2.66-1.75-4.58-1.75h-5.46c-.41,0-.62.21-.62.62Z"/>
    <path class="cls-1" d="m331.85,96.15c.27.28.41.65.41,1.13v13.49c0,.48-.14.86-.41,1.13-.28.28-.65.41-1.13.41h-14.63c-.41,0-.62.21-.62.62v53.35c0,.48-.14.86-.41,1.13-.28.28-.65.41-1.13.41h-16.27c-.48,0-.86-.14-1.13-.41-.28-.27-.41-.65-.41-1.13v-53.35c0-.41-.21-.62-.62-.62h-14.32c-.48,0-.86-.14-1.13-.41-.28-.27-.41-.65-.41-1.13v-13.49c0-.48.14-.86.41-1.13s.65-.41,1.13-.41h49.54c.48,0,.86.14,1.13.41Z"/>
    <path class="cls-1" d="m387.04,111.91c-.28.28-.65.41-1.13.41h-25.13c-.41,0-.62.21-.62.62v9.68c0,.41.21.62.62.62h14.52c.48,0,.86.14,1.13.41.27.27.41.65.41,1.13v13.39c0,.48-.14.86-.41,1.13s-.65.41-1.13.41h-14.52c-.41,0-.62.21-.62.62v10.3c0,.41.21.62.62.62h25.13c.48,0,.86.14,1.13.41.27.28.41.65.41,1.13v13.49c0,.48-.14.86-.41,1.13-.28.28-.65.41-1.13.41h-43.57c-.48,0-.86-.14-1.13-.41-.28-.27-.41-.65-.41-1.13v-69.01c0-.48.14-.86.41-1.13.27-.27.65-.41,1.13-.41h43.57c.48,0,.86.14,1.13.41.27.28.41.65.41,1.13v13.49c0,.48-.14.86-.41,1.13Z"/>
    <g>
      <path class="cls-3" d="m46.29,36.98c-.25.25-.56.38-.92.38h-7.65c-.36,0-.54.18-.54.54v21.32c0,1.87.36,3.21,1.08,4.04.72.83,1.83,1.2,3.34,1.13h2.37c.36,0,.66.13.92.38.25.25.38.56.38.92v12.71c0,.86-.43,1.29-1.29,1.29-2.87.14-4.95.22-6.25.22-5.96,0-10.39-.93-13.3-2.8-2.91-1.87-4.36-5.42-4.36-10.66v-28.53c0-.36-.18-.54-.54-.54h-4.85c-.36,0-.66-.12-.92-.38-.25-.25-.38-.55-.38-.92v-10.77c0-.36.12-.66.38-.92.25-.25.56-.38.92-.38h4.85c.36,0,.54-.18.54-.54v-12.49c0-.36.12-.66.38-.92.25-.25.56-.38.92-.38h14.54c.36,0,.66.13.92.38.25.25.38.56.38.92v12.49c0,.36.18.54.54.54h7.65c.36,0,.66.13.92.38.25.25.38.56.38.92v10.77c0,.36-.13.67-.38.92Z"/>
      <path class="cls-3" d="m90.44,25.51c3.59,1.58,6.41,3.75,8.45,6.51,2.05,2.76,3.07,5.91,3.07,9.42v36.93c0,.36-.13.66-.38.92-.25.25-.56.38-.92.38h-15.29c-.36,0-.66-.12-.92-.38-.25-.25-.38-.55-.38-.92v-3.12c0-.21-.07-.36-.22-.43-.14-.07-.29,0-.43.22-2.51,3.59-6.68,5.42-12.49,5.49-4.95,0-9.03-1.25-12.22-3.77-3.19-2.51-4.79-6.71-4.79-12.6,0-6.25,1.88-10.7,5.65-13.35,3.77-2.66,9.28-3.98,16.53-3.98h7.43c.36,0,.54-.18.54-.54v-2.37c0-1.65-.5-2.98-1.51-3.98-1.01-1-2.41-1.51-4.2-1.51-1.36,0-2.5.31-3.39.92-.9.61-1.53,1.42-1.88,2.42-.22.79-.68,1.15-1.4,1.08l-15.61-.97c-.86-.14-1.29-.54-1.29-1.18.22-3.45,1.35-6.5,3.39-9.15,2.05-2.66,4.81-4.72,8.29-6.19,3.48-1.47,7.38-2.21,11.68-2.21,4.59,0,8.68.79,12.28,2.37Zm-8.45,40.33c1.4-1.11,2.1-2.57,2.1-4.36v-3.23c0-.36-.18-.54-.54-.54h-4.85c-2.08,0-3.71.45-4.9,1.35-1.18.9-1.78,2.17-1.78,3.82,0,1.44.45,2.57,1.35,3.39.9.83,2.1,1.24,3.61,1.24,1.94,0,3.61-.55,5.01-1.67Z"/>
      <path class="cls-3" d="m154.67,28.26c3.01,3.41,4.52,8.17,4.52,14.27v35.86c0,.36-.13.66-.38.92-.25.25-.56.38-.92.38h-15.29c-.36,0-.66-.12-.92-.38-.25-.25-.38-.55-.38-.92v-33.27c0-2.01-.5-3.62-1.51-4.85-1.01-1.22-2.33-1.83-3.98-1.83s-2.98.61-3.98,1.83c-1.01,1.22-1.51,2.84-1.51,4.85v33.27c0,.36-.13.66-.38.92-.25.25-.56.38-.92.38h-15.29c-.36,0-.66-.12-.92-.38-.25-.25-.38-.55-.38-.92V25.3c0-.36.12-.66.38-.92.25-.25.56-.38.92-.38h15.29c.36,0,.66.13.92.38.25.25.38.56.38.92v3.01c0,.22.09.34.27.38.18.04.34-.09.48-.38,2.58-3.45,6.25-5.17,10.98-5.17,5.38,0,9.58,1.71,12.6,5.11Z"/>
      <path class="cls-3" d="m199.26,24.38c.25-.25.56-.38.92-.38h15.29c.36,0,.66.13.92.38.25.25.38.56.38.92v49.64c0,8.97-2.53,15.63-7.59,19.97-5.06,4.34-10.28-16.81-10.28-20.84l-.75.86c-2.44,2.87-5.92,4.31-10.44,4.31s-8.72-1.35-11.95-4.04c-3.23-2.69-5.31-6.8-6.25-12.33-.58-2.01-.86-5.78-.86-11.31,0-2.01.09-4.15.27-6.41.18-2.26.41-3.97.7-5.11.07-.14.11-.36.11-.65.86-5.1,2.82-9.08,5.87-11.95,3.05-2.87,6.98-4.31,11.79-4.31s8.29,1.62,10.88,4.84c.14.22.29.29.43.22.14-.07.22-.22.22-.43v-2.48c0-.36.12-.66.38-.92Zm-.38,27.19c0-3.52-.18-6.25-.54-8.18-.29-1.51-.92-2.71-1.88-3.61-.97-.9-2.21-1.35-3.72-1.35-1.36,0-2.49.45-3.39,1.35-.9.9-1.53,2.06-1.88,3.5-.58,2.66-.86,5.46-.86,8.4s.22,5.71.65,8.08c.36,1.51,1.02,2.69,1.99,3.55.97.86,2.17,1.29,3.61,1.29,1.51,0,2.75-.43,3.71-1.29.97-.86,1.6-2.05,1.88-3.55.29-2.08.43-4.81.43-8.18Z"/>
      <path class="cls-3" d="m234.58,75.53c-4.16-3.34-6.64-7.95-7.43-13.84-.43-2.8-.65-6.1-.65-9.91,0-4.23.25-7.64.75-10.23.79-5.67,3.27-10.16,7.43-13.46,4.16-3.3,9.55-4.95,16.15-4.95s11.97,1.65,16.1,4.95c4.13,3.3,6.59,7.75,7.38,13.35.5,2.73.75,6.14.75,10.23,0,3.45-.18,6.71-.54,9.8-.79,5.96-3.27,10.62-7.43,14-4.16,3.38-9.58,5.06-16.26,5.06s-12.1-1.67-16.26-5.01Zm20.19-11.95c1.04-1.11,1.74-2.6,2.1-4.47.22-2.3.32-4.74.32-7.32,0-1.87-.14-4.38-.43-7.54-.29-1.79-.95-3.21-1.99-4.25-1.04-1.04-2.35-1.56-3.93-1.56s-3,.52-4.04,1.56c-1.04,1.04-1.71,2.46-1.99,4.25-.29,2.08-.43,4.59-.43,7.54,0,2.58.11,5.03.32,7.32.36,1.87,1.06,3.36,2.1,4.47,1.04,1.11,2.39,1.67,4.04,1.67s2.89-.56,3.93-1.67Z"/>
      <path class="cls-3" d="m130.78,192.41c19.01-.44,41.02-9.21,52.91-24.45,12.56-15.56,11.73-38.66,1.17-55.02-4.13-6.54-9.9-12.02-16.7-15.18-13.34-6.25-31.12-2.77-40.01,9.28-10.71,13.89-9.52,38.25,7.13,46.78,6.07,3.21,13.29,4.56,20.07,2.94,12.53-2.97,23.42-14.1,30.88-24.27,11.39-16.97,14.79-38.38,12.83-58.49-.5-4.9,3.07-9.27,7.97-9.77s9.27,3.07,9.77,7.97c.12,4.73-.25,9.47-.65,14.16-1.38,13.1-4.35,26.01-10.03,38.02-5.51,12.04-14.02,22.61-24.31,30.99-10.35,8.91-24.53,15.26-38.5,12.32-14.11-2.66-26.27-12.83-29.68-27.01-4.35-16.53,1.73-35.55,15.76-45.56,8.32-5.81,18.79-8.15,28.79-6.86,22.53,2.64,37.45,24.81,39.12,46.08,1.27,12.74-2.56,25.97-10.76,35.85-12.79,15.6-35.89,24.31-55.78,24.22-1.3-.08-1.29-1.97.03-2h0Z"/>
    </g>
  </g>
</svg>