<svg width="1674" height="1117" viewBox="0 0 1674 1117" fill="none" xmlns="http://www.w3.org/2000/svg">
<path d="M1660.71 -9.07599C1598.75 66.4591 1562.24 87.4991 1527.12 104.727C1492 121.955 1400.73 131.301 1379.9 121.955C1363.69 114.686 1323.5 100.528 1327.71 66.4591C1331.08 39.1904 1350.67 7.23242 1379.9 22.8687C1398.14 32.634 1414.4 46.5493 1409.02 66.4591C1397.7 108.336 1327.48 135.254 1316.09 136.672C1257.81 143.921 1226.86 124.142 1176.79 118.69C1090.14 109.254 1065.17 129.074 969.773 150.692C857.627 176.103 822.018 126.978 663.303 118.69C561.739 113.384 491.344 136.672 421.647 150.692C351.95 164.711 316 138.054 258 136.672C149.498 134.086 38.697 194.506 30 263C21.303 331.494 73.5354 365.724 120 405C238.098 504.827 278.589 508.245 316 589C344.698 727.9 122 709 40 929C-42.0001 1149 120 1255 120 1255" stroke="#E78431" stroke-width="33" stroke-miterlimit="10"/>
</svg>
